<svg width="98" height="12" viewBox="0 0 98 12" fill="none" xmlns="http://www.w3.org/2000/svg">
<path d="M1.16 4.64604H5.6V5.40204H1.16V4.64604ZM1.256 8.52204H6.308V9.29004H0.368V0.890038H6.128V1.65804H1.256V8.52204ZM11.4313 2.93004C11.9433 2.93004 12.3913 3.03004 12.7753 3.23004C13.1673 3.42204 13.4713 3.71804 13.6873 4.11804C13.9113 4.51804 14.0233 5.02204 14.0233 5.63004V9.29004H13.1713V5.71404C13.1713 5.05004 13.0033 4.55004 12.6673 4.21404C12.3393 3.87004 11.8753 3.69804 11.2753 3.69804C10.8273 3.69804 10.4353 3.79004 10.0993 3.97404C9.77134 4.15004 9.51534 4.41004 9.33134 4.75404C9.15534 5.09004 9.06734 5.49804 9.06734 5.97804V9.29004H8.21534V2.99004H9.03134V4.71804L8.89934 4.39404C9.09934 3.93804 9.41934 3.58204 9.85934 3.32604C10.2993 3.06204 10.8233 2.93004 11.4313 2.93004ZM18.3167 9.35004C17.7247 9.35004 17.2687 9.19004 16.9487 8.87004C16.6287 8.55004 16.4687 8.09804 16.4687 7.51404V1.59804H17.3207V7.46604C17.3207 7.83404 17.4127 8.11804 17.5967 8.31804C17.7887 8.51804 18.0607 8.61804 18.4127 8.61804C18.7887 8.61804 19.1007 8.51004 19.3487 8.29404L19.6487 8.90604C19.4807 9.05804 19.2767 9.17004 19.0367 9.24204C18.8047 9.31404 18.5647 9.35004 18.3167 9.35004ZM15.3407 3.69804V2.99004H19.2407V3.69804H15.3407ZM23.6531 9.35004C22.9971 9.35004 22.4211 9.21404 21.9251 8.94204C21.4291 8.66204 21.0411 8.28204 20.7611 7.80204C20.4811 7.31404 20.3411 6.75804 20.3411 6.13404C20.3411 5.51004 20.4731 4.95804 20.7371 4.47804C21.0091 3.99804 21.3771 3.62204 21.8411 3.35004C22.3131 3.07004 22.8411 2.93004 23.4251 2.93004C24.0171 2.93004 24.5411 3.06604 24.9971 3.33804C25.4611 3.60204 25.8251 3.97804 26.0891 4.46604C26.3531 4.94604 26.4851 5.50204 26.4851 6.13404C26.4851 6.17404 26.4811 6.21804 26.4731 6.26604C26.4731 6.30604 26.4731 6.35004 26.4731 6.39804H20.9891V5.76204H26.0171L25.6811 6.01404C25.6811 5.55804 25.5811 5.15404 25.3811 4.80204C25.1891 4.44204 24.9251 4.16204 24.5891 3.96204C24.2531 3.76204 23.8651 3.66204 23.4251 3.66204C22.9931 3.66204 22.6051 3.76204 22.2611 3.96204C21.9171 4.16204 21.6491 4.44204 21.4571 4.80204C21.2651 5.16204 21.1691 5.57404 21.1691 6.03804V6.17004C21.1691 6.65004 21.2731 7.07404 21.4811 7.44204C21.6971 7.80204 21.9931 8.08604 22.3691 8.29404C22.7531 8.49404 23.1891 8.59404 23.6771 8.59404C24.0611 8.59404 24.4171 8.52604 24.7451 8.39004C25.0811 8.25404 25.3691 8.04604 25.6091 7.76604L26.0891 8.31804C25.8091 8.65404 25.4571 8.91004 25.0331 9.08604C24.6171 9.26204 24.1571 9.35004 23.6531 9.35004ZM28.2193 9.29004V2.99004H29.0353V4.70604L28.9513 4.40604C29.1273 3.92604 29.4233 3.56204 29.8393 3.31404C30.2553 3.05804 30.7713 2.93004 31.3873 2.93004V3.75804C31.3553 3.75804 31.3233 3.75804 31.2913 3.75804C31.2593 3.75004 31.2273 3.74604 31.1953 3.74604C30.5312 3.74604 30.0113 3.95004 29.6353 4.35804C29.2593 4.75804 29.0713 5.33004 29.0713 6.07404V9.29004H28.2193ZM36.2243 11.678C35.9283 11.678 35.6443 11.63 35.3723 11.534C35.1083 11.438 34.8803 11.294 34.6883 11.102L35.0843 10.466C35.2443 10.618 35.4163 10.734 35.6003 10.814C35.7923 10.902 36.0043 10.946 36.2363 10.946C36.5163 10.946 36.7563 10.866 36.9563 10.706C37.1643 10.554 37.3603 10.282 37.5443 9.89004L37.9523 8.96604L38.0483 8.83404L40.6403 2.99004H41.4803L38.3243 10.046C38.1483 10.454 37.9523 10.778 37.7363 11.018C37.5283 11.258 37.3003 11.426 37.0523 11.522C36.8043 11.626 36.5283 11.678 36.2243 11.678ZM37.9043 9.47004L35.0003 2.99004H35.8883L38.4563 8.77404L37.9043 9.47004ZM45.0724 9.35004C44.4644 9.35004 43.9164 9.21404 43.4284 8.94204C42.9484 8.66204 42.5684 8.28204 42.2884 7.80204C42.0084 7.31404 41.8684 6.75804 41.8684 6.13404C41.8684 5.50204 42.0084 4.94604 42.2884 4.46604C42.5684 3.98604 42.9484 3.61004 43.4284 3.33804C43.9084 3.06604 44.4564 2.93004 45.0724 2.93004C45.6964 2.93004 46.2484 3.06604 46.7284 3.33804C47.2164 3.61004 47.5964 3.98604 47.8684 4.46604C48.1484 4.94604 48.2884 5.50204 48.2884 6.13404C48.2884 6.75804 48.1484 7.31404 47.8684 7.80204C47.5964 8.28204 47.2164 8.66204 46.7284 8.94204C46.2404 9.21404 45.6884 9.35004 45.0724 9.35004ZM45.0724 8.59404C45.5284 8.59404 45.9324 8.49404 46.2844 8.29404C46.6364 8.08604 46.9124 7.79804 47.1124 7.43004C47.3204 7.05404 47.4244 6.62204 47.4244 6.13404C47.4244 5.63804 47.3204 5.20604 47.1124 4.83804C46.9124 4.47004 46.6364 4.18604 46.2844 3.98604C45.9324 3.77804 45.5324 3.67404 45.0844 3.67404C44.6364 3.67404 44.2364 3.77804 43.8844 3.98604C43.5324 4.18604 43.2524 4.47004 43.0444 4.83804C42.8364 5.20604 42.7324 5.63804 42.7324 6.13404C42.7324 6.62204 42.8364 7.05404 43.0444 7.43004C43.2524 7.79804 43.5324 8.08604 43.8844 8.29404C44.2364 8.49404 44.6324 8.59404 45.0724 8.59404ZM52.6318 9.35004C52.0958 9.35004 51.6278 9.25004 51.2278 9.05004C50.8278 8.85004 50.5158 8.55004 50.2918 8.15004C50.0758 7.75004 49.9678 7.25004 49.9678 6.65004V2.99004H50.8198V6.55404C50.8198 7.22604 50.9838 7.73404 51.3118 8.07804C51.6478 8.41404 52.1158 8.58204 52.7158 8.58204C53.1558 8.58204 53.5358 8.49404 53.8558 8.31804C54.1838 8.13404 54.4318 7.87004 54.5998 7.52604C54.7758 7.18204 54.8638 6.77004 54.8638 6.29004V2.99004H55.7158V9.29004H54.8998V7.56204L55.0318 7.87404C54.8318 8.33804 54.5198 8.70204 54.0958 8.96604C53.6798 9.22204 53.1918 9.35004 52.6318 9.35004ZM58.0903 9.29004V2.99004H58.9063V4.70604L58.8223 4.40604C58.9983 3.92604 59.2943 3.56204 59.7103 3.31404C60.1263 3.05804 60.6423 2.93004 61.2583 2.93004V3.75804C61.2263 3.75804 61.1943 3.75804 61.1623 3.75804C61.1303 3.75004 61.0983 3.74604 61.0663 3.74604C60.4023 3.74604 59.8823 3.95004 59.5063 4.35804C59.1303 4.75804 58.9423 5.33004 58.9423 6.07404V9.29004H58.0903ZM68.7234 9.35004C68.0674 9.35004 67.4914 9.21404 66.9954 8.94204C66.4994 8.66204 66.1114 8.28204 65.8314 7.80204C65.5514 7.31404 65.4114 6.75804 65.4114 6.13404C65.4114 5.51004 65.5434 4.95804 65.8074 4.47804C66.0794 3.99804 66.4474 3.62204 66.9114 3.35004C67.3834 3.07004 67.9114 2.93004 68.4954 2.93004C69.0874 2.93004 69.6114 3.06604 70.0674 3.33804C70.5314 3.60204 70.8954 3.97804 71.1594 4.46604C71.4234 4.94604 71.5554 5.50204 71.5554 6.13404C71.5554 6.17404 71.5514 6.21804 71.5434 6.26604C71.5434 6.30604 71.5434 6.35004 71.5434 6.39804H66.0594V5.76204H71.0874L70.7514 6.01404C70.7514 5.55804 70.6514 5.15404 70.4514 4.80204C70.2594 4.44204 69.9954 4.16204 69.6594 3.96204C69.3234 3.76204 68.9354 3.66204 68.4954 3.66204C68.0634 3.66204 67.6754 3.76204 67.3314 3.96204C66.9874 4.16204 66.7194 4.44204 66.5274 4.80204C66.3354 5.16204 66.2394 5.57404 66.2394 6.03804V6.17004C66.2394 6.65004 66.3434 7.07404 66.5514 7.44204C66.7674 7.80204 67.0634 8.08604 67.4394 8.29404C67.8234 8.49404 68.2594 8.59404 68.7474 8.59404C69.1314 8.59404 69.4874 8.52604 69.8154 8.39004C70.1514 8.25404 70.4394 8.04604 70.6794 7.76604L71.1594 8.31804C70.8794 8.65404 70.5274 8.91004 70.1034 9.08604C69.6874 9.26204 69.2274 9.35004 68.7234 9.35004ZM81.1616 2.93004C81.6736 2.93004 82.1176 3.03004 82.4936 3.23004C82.8776 3.42204 83.1736 3.71804 83.3816 4.11804C83.5976 4.51804 83.7056 5.02204 83.7056 5.63004V9.29004H82.8536V5.71404C82.8536 5.05004 82.6936 4.55004 82.3736 4.21404C82.0616 3.87004 81.6176 3.69804 81.0416 3.69804C80.6096 3.69804 80.2336 3.79004 79.9136 3.97404C79.6016 4.15004 79.3576 4.41004 79.1816 4.75404C79.0136 5.09004 78.9296 5.49804 78.9296 5.97804V9.29004H78.0776V5.71404C78.0776 5.05004 77.9176 4.55004 77.5976 4.21404C77.2776 3.87004 76.8296 3.69804 76.2536 3.69804C75.8296 3.69804 75.4576 3.79004 75.1376 3.97404C74.8176 4.15004 74.5696 4.41004 74.3936 4.75404C74.2256 5.09004 74.1416 5.49804 74.1416 5.97804V9.29004H73.2896V2.99004H74.1056V4.69404L73.9736 4.39404C74.1656 3.93804 74.4736 3.58204 74.8976 3.32604C75.3296 3.06204 75.8376 2.93004 76.4216 2.93004C77.0376 2.93004 77.5616 3.08604 77.9936 3.39804C78.4256 3.70204 78.7056 4.16204 78.8336 4.77804L78.4976 4.64604C78.6816 4.13404 79.0056 3.72204 79.4696 3.41004C79.9416 3.09004 80.5056 2.93004 81.1616 2.93004ZM89.9641 9.29004V7.89804L89.9281 7.67004V5.34204C89.9281 4.80604 89.7761 4.39404 89.4721 4.10604C89.1761 3.81804 88.7321 3.67404 88.1401 3.67404C87.7321 3.67404 87.3441 3.74204 86.9761 3.87804C86.6081 4.01404 86.2961 4.19404 86.0401 4.41804L85.6561 3.78204C85.9761 3.51004 86.3601 3.30204 86.8081 3.15804C87.2561 3.00604 87.7281 2.93004 88.2241 2.93004C89.0401 2.93004 89.6681 3.13404 90.1081 3.54204C90.5561 3.94204 90.7801 4.55404 90.7801 5.37804V9.29004H89.9641ZM87.7921 9.35004C87.3201 9.35004 86.9081 9.27404 86.5561 9.12204C86.2121 8.96204 85.9481 8.74604 85.7641 8.47404C85.5801 8.19404 85.4881 7.87404 85.4881 7.51404C85.4881 7.18604 85.5641 6.89004 85.7161 6.62604C85.8761 6.35404 86.1321 6.13804 86.4841 5.97804C86.8441 5.81004 87.3241 5.72604 87.9241 5.72604H90.0961V6.36204H87.9481C87.3401 6.36204 86.9161 6.47004 86.6761 6.68604C86.4441 6.90204 86.3281 7.17004 86.3281 7.49004C86.3281 7.85004 86.4681 8.13804 86.7481 8.35404C87.0281 8.57004 87.4201 8.67804 87.9241 8.67804C88.4041 8.67804 88.8161 8.57004 89.1601 8.35404C89.5121 8.13004 89.7681 7.81004 89.9281 7.39404L90.1201 7.98204C89.9601 8.39804 89.6801 8.73004 89.2801 8.97804C88.8881 9.22604 88.3921 9.35004 87.7921 9.35004ZM93.0943 9.29004V2.99004H93.9463V9.29004H93.0943ZM93.5263 1.59804C93.3503 1.59804 93.2023 1.53804 93.0823 1.41804C92.9623 1.29804 92.9023 1.15404 92.9023 0.986039C92.9023 0.818038 92.9623 0.678038 93.0823 0.566038C93.2023 0.446038 93.3503 0.386039 93.5263 0.386039C93.7023 0.386039 93.8503 0.442039 93.9703 0.554039C94.0903 0.666039 94.1503 0.806039 94.1503 0.974039C94.1503 1.15004 94.0903 1.29804 93.9703 1.41804C93.8583 1.53804 93.7103 1.59804 93.5263 1.59804ZM96.3169 9.29004V0.386039H97.1689V9.29004H96.3169Z" fill="#CDCDCD"/>
</svg>
