<svg width="20" height="20" viewBox="0 0 20 20" fill="none" xmlns="http://www.w3.org/2000/svg">
<path d="M1.84998 1.85002C1.74413 1.95584 1.67978 2.09614 1.66861 2.2454C1.65745 2.39465 1.70022 2.54296 1.78915 2.66335L1.84998 2.73335L5.21165 6.09585C3.57251 7.24471 2.40239 8.94589 1.91581 10.8875C1.8783 11.0474 1.90518 11.2155 1.99065 11.3557C2.07612 11.4959 2.21332 11.5968 2.37259 11.6367C2.53187 11.6765 2.70042 11.6521 2.84183 11.5687C2.98324 11.4852 3.08615 11.3495 3.12831 11.1909C3.56073 9.46752 4.62573 7.96998 6.11165 6.99585L7.61998 8.50419C7.01748 9.13376 6.68547 9.97425 6.69508 10.8456C6.70469 11.717 7.05516 12.55 7.6714 13.1661C8.28765 13.7822 9.12067 14.1325 9.99204 14.142C10.8634 14.1515 11.7038 13.8193 12.3333 13.2167L17.2658 18.15C17.3773 18.2618 17.5271 18.3273 17.6849 18.3332C17.8427 18.3392 17.9969 18.2851 18.1165 18.182C18.2361 18.0789 18.3122 17.9343 18.3296 17.7773C18.3469 17.6203 18.3042 17.4626 18.21 17.3359L18.1491 17.2659L13.055 12.1709L13.0558 12.1692L7.26415 6.38085L7.26581 6.37919L6.32165 5.43752L2.73331 1.85002C2.61613 1.73298 2.45727 1.66724 2.29165 1.66724C2.12602 1.66724 1.96717 1.73298 1.84998 1.85002ZM9.99998 4.58335C9.16665 4.58335 8.35831 4.70669 7.59248 4.93752L8.62331 5.96752C10.4063 5.61448 12.2567 5.96009 13.7921 6.93288C15.3274 7.90566 16.4302 9.43124 16.8725 11.1942C16.9157 11.3516 17.0187 11.4859 17.1596 11.5684C17.3005 11.6508 17.4681 11.6748 17.6265 11.6353C17.7849 11.5958 17.9216 11.4959 18.0072 11.3569C18.0929 11.2179 18.1208 11.051 18.085 10.8917C17.6331 9.08957 16.5921 7.49007 15.1273 6.34716C13.6625 5.20426 11.8579 4.58347 9.99998 4.58335ZM10.1625 7.50835L13.33 10.675C13.289 9.84827 12.9421 9.06628 12.3567 8.48104C11.7713 7.8958 10.9892 7.54911 10.1625 7.50835Z" fill="#545454"/>
</svg>
