<svg width="105" height="20" viewBox="0 0 105 20" fill="none" xmlns="http://www.w3.org/2000/svg">
<g filter="url(#filter0_d_36_66287)">
<path d="M9.181 1.333V2.147H5.848V4.732H8.554V5.546H5.848V9H4.847V1.333H9.181ZM13.019 9.099C12.4543 9.099 11.941 8.97067 11.479 8.714C11.0243 8.45733 10.665 8.09433 10.401 7.625C10.1443 7.14833 10.016 6.59833 10.016 5.975C10.016 5.359 10.148 4.81633 10.412 4.347C10.6833 3.87033 11.05 3.50733 11.512 3.258C11.974 3.00133 12.491 2.873 13.063 2.873C13.635 2.873 14.152 3.00133 14.614 3.258C15.076 3.50733 15.439 3.86667 15.703 4.336C15.9743 4.80533 16.11 5.35167 16.11 5.975C16.11 6.59833 15.9706 7.14833 15.692 7.625C15.4206 8.09433 15.0503 8.45733 14.581 8.714C14.1116 8.97067 13.591 9.099 13.019 9.099ZM13.019 8.219C13.3783 8.219 13.7156 8.13467 14.031 7.966C14.3463 7.79733 14.5993 7.54433 14.79 7.207C14.988 6.86967 15.087 6.459 15.087 5.975C15.087 5.491 14.9916 5.08033 14.801 4.743C14.6103 4.40567 14.361 4.15633 14.053 3.995C13.745 3.82633 13.4113 3.742 13.052 3.742C12.6853 3.742 12.348 3.82633 12.04 3.995C11.7393 4.15633 11.4973 4.40567 11.314 4.743C11.1306 5.08033 11.039 5.491 11.039 5.975C11.039 6.46633 11.127 6.88067 11.303 7.218C11.4863 7.55533 11.7283 7.80833 12.029 7.977C12.3296 8.13833 12.6596 8.219 13.019 8.219ZM18.4271 3.951C18.6031 3.60633 18.8524 3.33867 19.1751 3.148C19.5051 2.95733 19.9048 2.862 20.3741 2.862V3.896H20.1101C18.9881 3.896 18.4271 4.50467 18.4271 5.722V9H17.4261V2.972H18.4271V3.951ZM24.0156 2.873C24.5363 2.873 24.991 2.98667 25.3796 3.214C25.7756 3.44133 26.069 3.72733 26.2596 4.072V2.972H27.2716V9.132C27.2716 9.682 27.1543 10.1697 26.9196 10.595C26.685 11.0277 26.3476 11.365 25.9076 11.607C25.475 11.849 24.969 11.97 24.3896 11.97C23.5976 11.97 22.9376 11.783 22.4096 11.409C21.8816 11.035 21.57 10.5253 21.4746 9.88H22.4646C22.5746 10.2467 22.802 10.54 23.1466 10.76C23.4913 10.9873 23.9056 11.101 24.3896 11.101C24.9396 11.101 25.387 10.9287 25.7316 10.584C26.0836 10.2393 26.2596 9.75533 26.2596 9.132V7.867C26.0616 8.219 25.7683 8.51233 25.3796 8.747C24.991 8.98167 24.5363 9.099 24.0156 9.099C23.4803 9.099 22.9926 8.967 22.5526 8.703C22.12 8.439 21.779 8.06867 21.5296 7.592C21.2803 7.11533 21.1556 6.57267 21.1556 5.964C21.1556 5.348 21.2803 4.809 21.5296 4.347C21.779 3.87767 22.12 3.51467 22.5526 3.258C22.9926 3.00133 23.4803 2.873 24.0156 2.873ZM26.2596 5.975C26.2596 5.52033 26.168 5.12433 25.9846 4.787C25.8013 4.44967 25.552 4.193 25.2366 4.017C24.9286 3.83367 24.5876 3.742 24.2136 3.742C23.8396 3.742 23.4986 3.83 23.1906 4.006C22.8826 4.182 22.637 4.43867 22.4536 4.776C22.2703 5.11333 22.1786 5.50933 22.1786 5.964C22.1786 6.426 22.2703 6.82933 22.4536 7.174C22.637 7.51133 22.8826 7.77167 23.1906 7.955C23.4986 8.131 23.8396 8.219 24.2136 8.219C24.5876 8.219 24.9286 8.131 25.2366 7.955C25.552 7.77167 25.8013 7.51133 25.9846 7.174C26.168 6.82933 26.2596 6.42967 26.2596 5.975ZM31.5922 9.099C31.0275 9.099 30.5142 8.97067 30.0522 8.714C29.5975 8.45733 29.2382 8.09433 28.9742 7.625C28.7175 7.14833 28.5892 6.59833 28.5892 5.975C28.5892 5.359 28.7212 4.81633 28.9852 4.347C29.2565 3.87033 29.6232 3.50733 30.0852 3.258C30.5472 3.00133 31.0642 2.873 31.6362 2.873C32.2082 2.873 32.7252 3.00133 33.1872 3.258C33.6492 3.50733 34.0122 3.86667 34.2762 4.336C34.5475 4.80533 34.6832 5.35167 34.6832 5.975C34.6832 6.59833 34.5439 7.14833 34.2652 7.625C33.9939 8.09433 33.6235 8.45733 33.1542 8.714C32.6849 8.97067 32.1642 9.099 31.5922 9.099ZM31.5922 8.219C31.9515 8.219 32.2889 8.13467 32.6042 7.966C32.9195 7.79733 33.1725 7.54433 33.3632 7.207C33.5612 6.86967 33.6602 6.459 33.6602 5.975C33.6602 5.491 33.5649 5.08033 33.3742 4.743C33.1835 4.40567 32.9342 4.15633 32.6262 3.995C32.3182 3.82633 31.9845 3.742 31.6252 3.742C31.2585 3.742 30.9212 3.82633 30.6132 3.995C30.3125 4.15633 30.0705 4.40567 29.8872 4.743C29.7039 5.08033 29.6122 5.491 29.6122 5.975C29.6122 6.46633 29.7002 6.88067 29.8762 7.218C30.0595 7.55533 30.3015 7.80833 30.6022 7.977C30.9029 8.13833 31.2329 8.219 31.5922 8.219ZM37.2203 3.797V7.35C37.2203 7.64333 37.2827 7.85233 37.4073 7.977C37.532 8.09433 37.7483 8.153 38.0563 8.153H38.7933V9H37.8913C37.334 9 36.916 8.87167 36.6373 8.615C36.3587 8.35833 36.2193 7.93667 36.2193 7.35V3.797H35.4383V2.972H36.2193V1.454H37.2203V2.972H38.7933V3.797H37.2203ZM48.0648 3.577C48.0648 4.215 47.8448 4.74667 47.4048 5.172C46.9721 5.59 46.3085 5.799 45.4138 5.799H43.9398V9H42.9388V1.333H45.4138C46.2791 1.333 46.9355 1.542 47.3828 1.96C47.8375 2.378 48.0648 2.917 48.0648 3.577ZM45.4138 4.974C45.9711 4.974 46.3818 4.853 46.6458 4.611C46.9098 4.369 47.0418 4.02433 47.0418 3.577C47.0418 2.631 46.4991 2.158 45.4138 2.158H43.9398V4.974H45.4138ZM48.9349 5.964C48.9349 5.348 49.0596 4.809 49.3089 4.347C49.5582 3.87767 49.8992 3.51467 50.3319 3.258C50.7719 3.00133 51.2596 2.873 51.7949 2.873C52.3229 2.873 52.7812 2.98667 53.1699 3.214C53.5586 3.44133 53.8482 3.72733 54.0389 4.072V2.972H55.0509V9H54.0389V7.878C53.8409 8.23 53.5439 8.52333 53.1479 8.758C52.7592 8.98533 52.3046 9.099 51.7839 9.099C51.2486 9.099 50.7646 8.967 50.3319 8.703C49.8992 8.439 49.5582 8.06867 49.3089 7.592C49.0596 7.11533 48.9349 6.57267 48.9349 5.964ZM54.0389 5.975C54.0389 5.52033 53.9472 5.12433 53.7639 4.787C53.5806 4.44967 53.3312 4.193 53.0159 4.017C52.7079 3.83367 52.3669 3.742 51.9929 3.742C51.6189 3.742 51.2779 3.83 50.9699 4.006C50.6619 4.182 50.4162 4.43867 50.2329 4.776C50.0496 5.11333 49.9579 5.50933 49.9579 5.964C49.9579 6.426 50.0496 6.82933 50.2329 7.174C50.4162 7.51133 50.6619 7.77167 50.9699 7.955C51.2779 8.131 51.6189 8.219 51.9929 8.219C52.3669 8.219 52.7079 8.131 53.0159 7.955C53.3312 7.77167 53.5806 7.51133 53.7639 7.174C53.9472 6.82933 54.0389 6.42967 54.0389 5.975ZM58.8765 9.099C58.4145 9.099 58.0002 9.022 57.6335 8.868C57.2668 8.70667 56.9772 8.48667 56.7645 8.208C56.5518 7.922 56.4345 7.59567 56.4125 7.229H57.4465C57.4758 7.52967 57.6152 7.77533 57.8645 7.966C58.1212 8.15667 58.4548 8.252 58.8655 8.252C59.2468 8.252 59.5475 8.16767 59.7675 7.999C59.9875 7.83033 60.0975 7.61767 60.0975 7.361C60.0975 7.097 59.9802 6.90267 59.7455 6.778C59.5108 6.646 59.1478 6.51767 58.6565 6.393C58.2092 6.27567 57.8425 6.15833 57.5565 6.041C57.2778 5.91633 57.0358 5.73667 56.8305 5.502C56.6325 5.26 56.5335 4.94467 56.5335 4.556C56.5335 4.248 56.6252 3.96567 56.8085 3.709C56.9918 3.45233 57.2522 3.25067 57.5895 3.104C57.9268 2.95 58.3118 2.873 58.7445 2.873C59.4118 2.873 59.9508 3.04167 60.3615 3.379C60.7722 3.71633 60.9922 4.17833 61.0215 4.765H60.0205C59.9985 4.44967 59.8702 4.19667 59.6355 4.006C59.4082 3.81533 59.1002 3.72 58.7115 3.72C58.3522 3.72 58.0662 3.797 57.8535 3.951C57.6408 4.105 57.5345 4.30667 57.5345 4.556C57.5345 4.754 57.5968 4.919 57.7215 5.051C57.8535 5.17567 58.0148 5.27833 58.2055 5.359C58.4035 5.43233 58.6748 5.51667 59.0195 5.612C59.4522 5.72933 59.8042 5.84667 60.0755 5.964C60.3468 6.074 60.5778 6.24267 60.7685 6.47C60.9665 6.69733 61.0692 6.99433 61.0765 7.361C61.0765 7.691 60.9848 7.988 60.8015 8.252C60.6182 8.516 60.3578 8.725 60.0205 8.879C59.6905 9.02567 59.3092 9.099 58.8765 9.099ZM64.6236 9.099C64.1616 9.099 63.7472 9.022 63.3806 8.868C63.0139 8.70667 62.7242 8.48667 62.5116 8.208C62.2989 7.922 62.1816 7.59567 62.1596 7.229H63.1936C63.2229 7.52967 63.3622 7.77533 63.6116 7.966C63.8682 8.15667 64.2019 8.252 64.6126 8.252C64.9939 8.252 65.2946 8.16767 65.5146 7.999C65.7346 7.83033 65.8446 7.61767 65.8446 7.361C65.8446 7.097 65.7272 6.90267 65.4926 6.778C65.2579 6.646 64.8949 6.51767 64.4036 6.393C63.9562 6.27567 63.5896 6.15833 63.3036 6.041C63.0249 5.91633 62.7829 5.73667 62.5776 5.502C62.3796 5.26 62.2806 4.94467 62.2806 4.556C62.2806 4.248 62.3722 3.96567 62.5556 3.709C62.7389 3.45233 62.9992 3.25067 63.3366 3.104C63.6739 2.95 64.0589 2.873 64.4916 2.873C65.1589 2.873 65.6979 3.04167 66.1086 3.379C66.5192 3.71633 66.7392 4.17833 66.7686 4.765H65.7676C65.7456 4.44967 65.6172 4.19667 65.3826 4.006C65.1552 3.81533 64.8472 3.72 64.4586 3.72C64.0992 3.72 63.8132 3.797 63.6006 3.951C63.3879 4.105 63.2816 4.30667 63.2816 4.556C63.2816 4.754 63.3439 4.919 63.4686 5.051C63.6006 5.17567 63.7619 5.27833 63.9526 5.359C64.1506 5.43233 64.4219 5.51667 64.7666 5.612C65.1992 5.72933 65.5512 5.84667 65.8226 5.964C66.0939 6.074 66.3249 6.24267 66.5156 6.47C66.7136 6.69733 66.8162 6.99433 66.8236 7.361C66.8236 7.691 66.7319 7.988 66.5486 8.252C66.3652 8.516 66.1049 8.725 65.7676 8.879C65.4376 9.02567 65.0562 9.099 64.6236 9.099ZM76.2666 2.972L74.3856 9H73.3516L71.8996 4.215L70.4476 9H69.4136L67.5216 2.972H68.5446L69.9306 8.032L71.4266 2.972H72.4496L73.9126 8.043L75.2766 2.972H76.2666ZM79.8891 9.099C79.3244 9.099 78.8111 8.97067 78.3491 8.714C77.8944 8.45733 77.5351 8.09433 77.2711 7.625C77.0144 7.14833 76.8861 6.59833 76.8861 5.975C76.8861 5.359 77.0181 4.81633 77.2821 4.347C77.5534 3.87033 77.9201 3.50733 78.3821 3.258C78.8441 3.00133 79.3611 2.873 79.9331 2.873C80.5051 2.873 81.0221 3.00133 81.4841 3.258C81.9461 3.50733 82.3091 3.86667 82.5731 4.336C82.8444 4.80533 82.9801 5.35167 82.9801 5.975C82.9801 6.59833 82.8408 7.14833 82.5621 7.625C82.2908 8.09433 81.9204 8.45733 81.4511 8.714C80.9818 8.97067 80.4611 9.099 79.8891 9.099ZM79.8891 8.219C80.2484 8.219 80.5858 8.13467 80.9011 7.966C81.2164 7.79733 81.4694 7.54433 81.6601 7.207C81.8581 6.86967 81.9571 6.459 81.9571 5.975C81.9571 5.491 81.8618 5.08033 81.6711 4.743C81.4804 4.40567 81.2311 4.15633 80.9231 3.995C80.6151 3.82633 80.2814 3.742 79.9221 3.742C79.5554 3.742 79.2181 3.82633 78.9101 3.995C78.6094 4.15633 78.3674 4.40567 78.1841 4.743C78.0008 5.08033 77.9091 5.491 77.9091 5.975C77.9091 6.46633 77.9971 6.88067 78.1731 7.218C78.3564 7.55533 78.5984 7.80833 78.8991 7.977C79.1998 8.13833 79.5298 8.219 79.8891 8.219ZM85.2972 3.951C85.4732 3.60633 85.7226 3.33867 86.0452 3.148C86.3752 2.95733 86.7749 2.862 87.2442 2.862V3.896H86.9802C85.8582 3.896 85.2972 4.50467 85.2972 5.722V9H84.2962V2.972H85.2972V3.951ZM88.0257 5.964C88.0257 5.348 88.1504 4.809 88.3997 4.347C88.6491 3.87767 88.9901 3.51467 89.4227 3.258C89.8627 3.00133 90.3541 2.873 90.8967 2.873C91.3661 2.873 91.8024 2.983 92.2057 3.203C92.6091 3.41567 92.9171 3.698 93.1297 4.05V0.86H94.1417V9H93.1297V7.867C92.9317 8.22633 92.6384 8.52333 92.2497 8.758C91.8611 8.98533 91.4064 9.099 90.8857 9.099C90.3504 9.099 89.8627 8.967 89.4227 8.703C88.9901 8.439 88.6491 8.06867 88.3997 7.592C88.1504 7.11533 88.0257 6.57267 88.0257 5.964ZM93.1297 5.975C93.1297 5.52033 93.0381 5.12433 92.8547 4.787C92.6714 4.44967 92.4221 4.193 92.1067 4.017C91.7987 3.83367 91.4577 3.742 91.0837 3.742C90.7097 3.742 90.3687 3.83 90.0607 4.006C89.7527 4.182 89.5071 4.43867 89.3237 4.776C89.1404 5.11333 89.0487 5.50933 89.0487 5.964C89.0487 6.426 89.1404 6.82933 89.3237 7.174C89.5071 7.51133 89.7527 7.77167 90.0607 7.955C90.3687 8.131 90.7097 8.219 91.0837 8.219C91.4577 8.219 91.7987 8.131 92.1067 7.955C92.4221 7.77167 92.6714 7.51133 92.8547 7.174C93.0381 6.82933 93.1297 6.42967 93.1297 5.975ZM97.7913 1.234C98.5173 1.234 99.104 1.43933 99.5513 1.85C99.9987 2.26067 100.222 2.81067 100.222 3.5C100.222 4.27 99.984 4.842 99.5073 5.216C99.0307 5.58267 98.3853 5.766 97.5713 5.766L97.5383 6.811H96.6693L96.6253 5.073H96.9443C97.6703 5.073 98.2387 4.963 98.6493 4.743C99.06 4.523 99.2653 4.10867 99.2653 3.5C99.2653 3.06 99.1333 2.71167 98.8693 2.455C98.6053 2.19833 98.2497 2.07 97.8023 2.07C97.3477 2.07 96.9883 2.19467 96.7243 2.444C96.4677 2.686 96.3393 3.01967 96.3393 3.445H95.3933C95.3933 3.005 95.4923 2.62 95.6903 2.29C95.8883 1.95267 96.167 1.69233 96.5263 1.509C96.893 1.32567 97.3147 1.234 97.7913 1.234ZM97.0983 9.066C96.9077 9.066 96.7463 9 96.6143 8.868C96.4823 8.736 96.4163 8.57467 96.4163 8.384C96.4163 8.19333 96.4823 8.032 96.6143 7.9C96.7463 7.768 96.9077 7.702 97.0983 7.702C97.2817 7.702 97.4357 7.768 97.5603 7.9C97.6923 8.032 97.7583 8.19333 97.7583 8.384C97.7583 8.57467 97.6923 8.736 97.5603 8.868C97.4357 9 97.2817 9.066 97.0983 9.066Z" fill="#D7D7D7"/>
</g>
<defs>
<filter id="filter0_d_36_66287" x="0.847046" y="0.860107" width="103.375" height="19.1099" filterUnits="userSpaceOnUse" color-interpolation-filters="sRGB">
<feFlood flood-opacity="0" result="BackgroundImageFix"/>
<feColorMatrix in="SourceAlpha" type="matrix" values="0 0 0 0 0 0 0 0 0 0 0 0 0 0 0 0 0 0 127 0" result="hardAlpha"/>
<feOffset dy="4"/>
<feGaussianBlur stdDeviation="2"/>
<feComposite in2="hardAlpha" operator="out"/>
<feColorMatrix type="matrix" values="0 0 0 0 0 0 0 0 0 0 0 0 0 0 0 0 0 0 0.25 0"/>
<feBlend mode="normal" in2="BackgroundImageFix" result="effect1_dropShadow_36_66287"/>
<feBlend mode="normal" in="SourceGraphic" in2="effect1_dropShadow_36_66287" result="shape"/>
</filter>
</defs>
</svg>
